<svg xmlns="http://www.w3.org/2000/svg" viewBox="0 0 800 450" role="img" aria-labelledby="title desc">
  <title id="title">Who's That Blood Group printable preview</title>
  <desc id="desc">Black and white printable clue card and blood group token preview.</desc>
  <rect width="800" height="450" fill="#fff"/>
  <rect x="22" y="22" width="756" height="406" rx="18" fill="none" stroke="#000" stroke-width="8"/>
  <g stroke="#000" stroke-width="3" opacity=".32">
    <path d="M400 225 68 44"/>
    <path d="M400 225 146 30"/>
    <path d="M400 225 238 26"/>
    <path d="M400 225 334 24"/>
    <path d="M400 225 494 25"/>
    <path d="M400 225 604 34"/>
    <path d="M400 225 736 52"/>
    <path d="M400 225 760 136"/>
    <path d="M400 225 768 304"/>
    <path d="M400 225 660 416"/>
    <path d="M400 225 520 426"/>
    <path d="M400 225 346 430"/>
    <path d="M400 225 204 420"/>
    <path d="M400 225 42 336"/>
    <path d="M400 225 34 190"/>
  </g>
  <g transform="translate(72 62)">
    <rect x="0" y="0" width="236" height="286" rx="14" fill="#fff" stroke="#000" stroke-width="6"/>
    <circle cx="194" cy="42" r="28" fill="#fff" stroke="#000" stroke-width="5"/>
    <text x="194" y="53" text-anchor="middle" font-family="Arial, Helvetica, sans-serif" font-size="38" font-weight="900">?</text>
    <text x="22" y="44" font-family="Arial, Helvetica, sans-serif" font-size="25" font-weight="900">CLUE CARD</text>
    <line x1="22" y1="70" x2="214" y2="70" stroke="#000" stroke-width="4"/>
    <circle cx="34" cy="106" r="7" fill="#000"/>
    <line x1="54" y1="106" x2="202" y2="106" stroke="#000" stroke-width="6" stroke-linecap="round"/>
    <circle cx="34" cy="144" r="7" fill="#000"/>
    <line x1="54" y1="144" x2="184" y2="144" stroke="#000" stroke-width="6" stroke-linecap="round"/>
    <circle cx="34" cy="182" r="7" fill="#000"/>
    <line x1="54" y1="182" x2="208" y2="182" stroke="#000" stroke-width="6" stroke-linecap="round"/>
    <rect x="28" y="226" width="180" height="42" rx="10" fill="#fff" stroke="#000" stroke-width="4" stroke-dasharray="10 7"/>
  </g>
  <g transform="translate(492 72)">
    <circle cx="91" cy="91" r="88" fill="#fff" stroke="#000" stroke-width="7"/>
    <text x="91" y="105" text-anchor="middle" font-family="Arial, Helvetica, sans-serif" font-size="48" font-weight="900">ABO</text>
    <circle cx="222" cy="180" r="62" fill="#fff" stroke="#000" stroke-width="6"/>
    <text x="222" y="194" text-anchor="middle" font-family="Arial, Helvetica, sans-serif" font-size="36" font-weight="900">Rh</text>
    <circle cx="38" cy="238" r="46" fill="#fff" stroke="#000" stroke-width="5"/>
    <text x="38" y="249" text-anchor="middle" font-family="Arial, Helvetica, sans-serif" font-size="27" font-weight="900">Kell</text>
  </g>
  <g font-family="Arial, Helvetica, sans-serif" text-anchor="middle" fill="#000">
    <text x="400" y="382" font-size="48" font-weight="1000">WHO'S THAT BLOOD GROUP!!!?</text>
    <text x="400" y="414" font-size="20" font-weight="800" letter-spacing="3">PRINT CLUES + MATCH TOKENS</text>
  </g>
</svg>
