<svg xmlns="http://www.w3.org/2000/svg" viewBox="0 0 640 420" role="img" aria-label="Metal and Vitamin Shop shelf preview">
  <defs>
    <linearGradient id="wall" x1="0" y1="0" x2="1" y2="1">
      <stop offset="0" stop-color="#eef7ed"/>
      <stop offset=".55" stop-color="#fffdf8"/>
      <stop offset="1" stop-color="#fff0bb"/>
    </linearGradient>
    <linearGradient id="floor" x1="0" y1="0" x2="0" y2="1">
      <stop offset="0" stop-color="#f6e2c7"/>
      <stop offset="1" stop-color="#e8c49b"/>
    </linearGradient>
    <linearGradient id="blueBottle" x1="0" y1="0" x2="1" y2="1">
      <stop offset="0" stop-color="#f9fdff"/>
      <stop offset="1" stop-color="#93c5dc"/>
    </linearGradient>
    <linearGradient id="goldBottle" x1="0" y1="0" x2="1" y2="1">
      <stop offset="0" stop-color="#fffef7"/>
      <stop offset="1" stop-color="#f3cf68"/>
    </linearGradient>
  </defs>
  <rect width="640" height="420" rx="34" fill="url(#wall)"/>
  <path d="M0 310h640v76q0 34-34 34H34q-34 0-34-34z" fill="url(#floor)"/>
  <rect x="42" y="36" width="556" height="64" rx="22" fill="#fffdf8" stroke="#8ebf95" stroke-width="4"/>
  <text x="320" y="72" text-anchor="middle" font-family="Arial, sans-serif" font-size="27" font-weight="900" fill="#1b2135">Medical Labeling Shop</text>
  <g opacity=".75">
    <path d="M72 142h220M72 232h220M348 142h220M348 232h220" stroke="#5f8f6b" stroke-width="16" stroke-linecap="round"/>
    <path d="M72 133h220M72 223h220M348 133h220M348 223h220" stroke="#dfead7" stroke-width="10" stroke-linecap="round"/>
  </g>
  <g font-family="Arial, sans-serif" font-size="18" font-weight="900">
    <text x="178" y="128" text-anchor="middle" fill="#3c87b7">Metals Shelf</text>
    <text x="458" y="128" text-anchor="middle" fill="#a16d05">Vitamins Shelf</text>
  </g>
  <g>
    <g transform="translate(88 154)">
      <rect x="0" y="20" width="54" height="82" rx="14" fill="url(#blueBottle)" stroke="#3c87b7" stroke-width="4"/>
      <rect x="14" y="0" width="26" height="23" rx="6" fill="#3c87b7"/>
      <rect x="7" y="48" width="40" height="26" rx="6" fill="#fff" stroke="#3c87b7" stroke-dasharray="5 4" stroke-width="2"/>
    </g>
    <g transform="translate(170 154)">
      <rect x="0" y="20" width="54" height="82" rx="14" fill="url(#blueBottle)" stroke="#3c87b7" stroke-width="4"/>
      <rect x="14" y="0" width="26" height="23" rx="6" fill="#3c87b7"/>
      <rect x="7" y="48" width="40" height="26" rx="6" fill="#fff" stroke="#3c87b7" stroke-dasharray="5 4" stroke-width="2"/>
    </g>
    <g transform="translate(388 154)">
      <rect x="0" y="20" width="54" height="82" rx="14" fill="url(#goldBottle)" stroke="#d6a531" stroke-width="4"/>
      <rect x="14" y="0" width="26" height="23" rx="6" fill="#d6a531"/>
      <rect x="7" y="48" width="40" height="26" rx="6" fill="#fff" stroke="#d6a531" stroke-dasharray="5 4" stroke-width="2"/>
    </g>
    <g transform="translate(470 154)">
      <rect x="0" y="20" width="54" height="82" rx="14" fill="url(#goldBottle)" stroke="#d6a531" stroke-width="4"/>
      <rect x="14" y="0" width="26" height="23" rx="6" fill="#d6a531"/>
      <rect x="7" y="48" width="40" height="26" rx="6" fill="#fff" stroke="#d6a531" stroke-dasharray="5 4" stroke-width="2"/>
    </g>
  </g>
  <g font-family="Arial, sans-serif" font-size="18" font-weight="900">
    <rect x="86" y="318" width="92" height="40" rx="20" fill="#dbead8" stroke="#5f8f6b" stroke-width="4"/>
    <text x="132" y="344" text-anchor="middle" fill="#1b2135">Iron</text>
    <rect x="192" y="318" width="110" height="40" rx="20" fill="#dbead8" stroke="#5f8f6b" stroke-width="4"/>
    <text x="247" y="344" text-anchor="middle" fill="#1b2135">Copper</text>
    <rect x="356" y="318" width="122" height="40" rx="20" fill="#fff0bb" stroke="#d6a531" stroke-width="4"/>
    <text x="417" y="344" text-anchor="middle" fill="#1b2135">Vitamin D</text>
    <rect x="492" y="318" width="70" height="40" rx="20" fill="#fff0bb" stroke="#d6a531" stroke-width="4"/>
    <text x="527" y="344" text-anchor="middle" fill="#1b2135">B12</text>
  </g>
</svg>
