<svg xmlns="http://www.w3.org/2000/svg" viewBox="0 0 640 420" role="img" aria-label="Mystery Micronutrient Game preview">
  <defs>
    <linearGradient id="bg" x1="0" y1="0" x2="1" y2="1">
      <stop offset="0" stop-color="#edf6ff"/>
      <stop offset=".62" stop-color="#ffffff"/>
      <stop offset="1" stop-color="#dcecff"/>
    </linearGradient>
    <filter id="shadow" x="-20%" y="-20%" width="140%" height="140%">
      <feDropShadow dx="0" dy="9" stdDeviation="9" flood-color="#263655" flood-opacity=".18"/>
    </filter>
  </defs>
  <rect width="640" height="420" rx="34" fill="url(#bg)"/>
  <rect x="36" y="32" width="568" height="76" rx="24" fill="#ffffff" stroke="#9ec4eb" stroke-width="4" filter="url(#shadow)"/>
  <text x="64" y="65" font-family="Arial, sans-serif" font-size="16" font-weight="900" letter-spacing="5" fill="#2980b9">CLINICAL CHEMISTRY</text>
  <text x="64" y="93" font-family="Arial, sans-serif" font-size="25" font-weight="900" fill="#1b2135">Mystery Micronutrient Game</text>
  <g transform="translate(45 130)" filter="url(#shadow)">
    <rect x="0" y="0" width="260" height="198" rx="22" fill="#ffffff" stroke="#2f6bd8" stroke-dasharray="10 8" stroke-width="4"/>
    <circle cx="42" cy="38" r="23" fill="#e7f3ff" stroke="#2980b9" stroke-width="4"/>
    <text x="42" y="45" text-anchor="middle" font-family="Arial, sans-serif" font-size="20" font-weight="900" fill="#2980b9">M1</text>
    <text x="74" y="36" font-family="Arial, sans-serif" font-size="14" font-weight="900" letter-spacing="2" fill="#2980b9">METAL CLUE CARD</text>
    <rect x="25" y="70" width="210" height="25" rx="9" fill="#edf6ff"/>
    <rect x="25" y="106" width="174" height="21" rx="8" fill="#edf6ff"/>
    <text x="36" y="88" font-family="Arial, sans-serif" font-size="13" font-weight="800" fill="#59627e">Pattern clue information</text>
    <text x="36" y="123" font-family="Arial, sans-serif" font-size="13" font-weight="800" fill="#59627e">goes on this card</text>
    <circle cx="130" cy="162" r="27" fill="#fff" stroke="#2f6bd8" stroke-dasharray="7 5" stroke-width="3"/>
    <text x="130" y="166" text-anchor="middle" font-family="Arial, sans-serif" font-size="12" font-weight="900" fill="#59627e">TOKEN</text>
  </g>
  <g transform="translate(335 130)" filter="url(#shadow)">
    <rect x="0" y="0" width="260" height="198" rx="22" fill="#ffffff" stroke="#2f6bd8" stroke-dasharray="10 8" stroke-width="4"/>
    <circle cx="42" cy="38" r="23" fill="#e7f3ff" stroke="#2980b9" stroke-width="4"/>
    <text x="42" y="45" text-anchor="middle" font-family="Arial, sans-serif" font-size="20" font-weight="900" fill="#2980b9">V1</text>
    <text x="74" y="36" font-family="Arial, sans-serif" font-size="14" font-weight="900" letter-spacing="2" fill="#2980b9">VITAMIN CLUE CARD</text>
    <rect x="25" y="70" width="214" height="25" rx="9" fill="#edf6ff"/>
    <rect x="25" y="106" width="150" height="21" rx="8" fill="#edf6ff"/>
    <text x="36" y="88" font-family="Arial, sans-serif" font-size="13" font-weight="800" fill="#59627e">Read clue, choose the</text>
    <text x="36" y="123" font-family="Arial, sans-serif" font-size="13" font-weight="800" fill="#59627e">right round token</text>
    <circle cx="130" cy="162" r="27" fill="#dcecff" stroke="#2980b9" stroke-width="4"/>
    <text x="130" y="166" text-anchor="middle" font-family="Arial, sans-serif" font-size="12" font-weight="900" fill="#1b2135">SEALED</text>
  </g>
  <g font-family="Arial, sans-serif" font-size="15" font-weight="900">
    <circle cx="136" cy="365" r="28" fill="#fff" stroke="#2f6bd8" stroke-width="4"/>
    <text x="136" y="371" text-anchor="middle" fill="#1b2135">Iron</text>
    <circle cx="230" cy="365" r="28" fill="#fff" stroke="#2f6bd8" stroke-width="4"/>
    <text x="230" y="371" text-anchor="middle" fill="#1b2135">Zinc</text>
    <circle cx="392" cy="365" r="28" fill="#fff" stroke="#2f6bd8" stroke-width="4"/>
    <text x="392" y="370" text-anchor="middle" fill="#1b2135">B12</text>
    <circle cx="490" cy="365" r="28" fill="#fff" stroke="#2f6bd8" stroke-width="4"/>
    <text x="490" y="370" text-anchor="middle" fill="#1b2135">C</text>
  </g>
</svg>
