<svg xmlns="http://www.w3.org/2000/svg" viewBox="0 0 256 256" role="img" aria-label="UA Case Game mystery icon">
  <defs>
    <linearGradient id="cardBg" x1="0" y1="0" x2="1" y2="1">
      <stop offset="0" stop-color="#fff5bc"/>
      <stop offset="0.58" stop-color="#eaf2ff"/>
      <stop offset="1" stop-color="#ffffff"/>
    </linearGradient>
    <filter id="softShadow" x="-20%" y="-20%" width="140%" height="140%">
      <feDropShadow dx="0" dy="10" stdDeviation="10" flood-color="#1e2a4d" flood-opacity=".22"/>
    </filter>
  </defs>
  <rect width="256" height="256" rx="54" fill="url(#cardBg)"/>
  <path d="M0 0h256v72H0Z" fill="#c8a800" opacity=".18"/>
  <g filter="url(#softShadow)">
    <rect x="47" y="57" width="122" height="132" rx="18" fill="#fffdf5" stroke="#c8cce0" stroke-width="5"/>
    <path d="M47 91h122" stroke="#c8a800" stroke-width="8"/>
    <rect x="64" y="111" width="76" height="10" rx="5" fill="#d9e3f5"/>
    <rect x="64" y="135" width="88" height="10" rx="5" fill="#d9e3f5"/>
    <rect x="64" y="159" width="58" height="10" rx="5" fill="#d9e3f5"/>
  </g>
  <g transform="translate(97 83) rotate(-12)" filter="url(#softShadow)">
    <circle cx="51" cy="51" r="37" fill="none" stroke="#2f6bd8" stroke-width="13"/>
    <path d="M77 78l47 47" fill="none" stroke="#2f6bd8" stroke-width="18" stroke-linecap="round"/>
    <circle cx="51" cy="51" r="18" fill="#ffffff" opacity=".96"/>
  </g>
  <g filter="url(#softShadow)">
    <circle cx="178" cy="181" r="29" fill="#172033" stroke="#c8a800" stroke-width="5"/>
    <text x="178" y="192" text-anchor="middle" font-family="Arial Rounded MT Bold, Arial, sans-serif" font-size="38" font-weight="900" fill="#fff6c9">?</text>
  </g>
  <g transform="translate(50 196)">
    <rect x="0" y="0" width="70" height="30" rx="15" fill="#fff6c9" stroke="#c8a800" stroke-width="4"/>
    <text x="35" y="21" text-anchor="middle" font-family="Arial Rounded MT Bold, Arial, sans-serif" font-size="18" font-weight="900" fill="#5f4b00">G2</text>
  </g>
</svg>
